<?xml version="1.0" standalone="no"?>
<!DOCTYPE svg PUBLIC "-//W3C//DTD SVG 20010904//EN"
 "http://www.w3.org/TR/2001/REC-SVG-20010904/DTD/svg10.dtd">
<svg version="1.0" xmlns="http://www.w3.org/2000/svg"
 width="2808.000000pt" height="1886.000000pt" viewBox="0 0 2808.000000 1886.000000"
 preserveAspectRatio="xMidYMid meet">

<g transform="translate(0.000000,1886.000000) scale(0.100000,-0.100000)"
fill="#000000" stroke="none">
<path d="M2837 18835 c-293 -49 -570 -210 -751 -437 -119 -149 -190 -289 -244
-487 l-27 -96 -3 -6767 -2 -6768 5002 -3 5003 -2 85 -22 c251 -64 442 -173
607 -346 203 -214 310 -468 328 -782 7 -129 19 -190 51 -262 74 -170 253 -338
469 -444 529 -256 1193 -193 1623 154 121 98 220 241 256 367 8 30 19 120 25
200 17 240 77 427 194 603 173 260 425 432 754 514 64 16 387 17 5066 20
l4997 3 -2 6768 -3 6767 -27 96 c-35 127 -80 237 -133 329 -187 318 -505 536
-868 595 -81 13 -1413 15 -11207 14 -9099 -1 -11129 -3 -11193 -14z m21268
-3186 c390 -48 747 -296 927 -645 58 -112 102 -241 123 -358 22 -129 22 -913
0 -1042 -89 -505 -486 -903 -995 -995 -63 -12 -960 -14 -5500 -14 -5259 0
-5428 1 -5510 19 -262 57 -468 172 -646 360 -151 159 -244 322 -298 524 -41
153 -49 281 -43 709 5 423 11 471 72 643 153 423 521 725 970 795 109 18
10761 21 10900 4z m-16702 -134 c1061 -112 2006 -760 2643 -1811 577 -953 819
-2155 673 -3344 -113 -913 -469 -1788 -996 -2448 l-98 -123 -12 108 c-20 183
-77 344 -174 493 -53 80 -204 233 -284 287 -33 22 -231 129 -440 238 -429 223
-491 261 -589 354 -186 178 -295 398 -327 660 l-12 101 44 38 c327 275 600
724 736 1205 l27 97 33 0 c107 0 216 130 245 291 6 36 23 82 39 107 46 73 64
138 64 232 0 73 -4 93 -28 142 -51 104 -149 166 -246 156 -23 -2 -41 -3 -41
-2 0 1 11 22 25 46 100 179 99 625 -2 926 -53 159 -129 286 -242 405 -69 72
-73 78 -58 95 25 27 47 87 47 126 0 39 -34 151 -54 178 -11 15 -16 15 -68 -3
-70 -23 -234 -39 -413 -39 l-140 0 -1 58 c0 70 -25 122 -87 179 -76 71 -74 71
-153 -5 -42 -40 -116 -94 -184 -135 -106 -63 -117 -67 -159 -62 -115 13 -567
35 -728 35 -128 0 -196 -4 -238 -15 -214 -56 -390 -213 -539 -484 -114 -206
-195 -432 -222 -611 -25 -175 -10 -499 33 -667 5 -21 2 -23 -32 -23 -96 0
-184 -60 -232 -158 -49 -103 -32 -275 37 -372 12 -17 30 -69 41 -115 21 -99
46 -152 100 -210 49 -53 93 -75 152 -75 43 0 46 -2 52 -32 14 -64 88 -283 131
-387 140 -332 367 -662 583 -846 l83 -70 -7 -80 c-14 -163 -73 -341 -161 -483
-61 -97 -193 -235 -288 -301 -40 -28 -244 -139 -452 -247 -208 -108 -410 -217
-449 -243 -176 -115 -317 -292 -397 -496 -43 -108 -55 -158 -71 -293 l-12
-103 -82 103 c-388 491 -664 1030 -844 1649 -212 733 -264 1550 -149 2319 270
1790 1411 3214 2870 3580 127 32 319 65 450 79 138 14 454 12 603 -4z m6192
-5175 c194 -27 370 -185 420 -375 77 -299 -129 -599 -437 -636 -54 -6 -261 -9
-540 -7 -434 4 -456 5 -518 26 -215 72 -353 262 -354 487 0 255 182 467 433
504 80 12 912 13 996 1z m11138 0 c254 -37 437 -249 437 -506 0 -259 -192
-474 -450 -504 -56 -7 -1614 -10 -4590 -8 l-4505 3 -66 22 c-131 45 -246 143
-302 256 -101 206 -66 429 92 588 77 77 185 134 278 148 84 12 9021 13 9106 1z
m-11051 -2067 c216 -82 348 -267 348 -488 0 -139 -50 -256 -149 -355 -74 -73
-139 -112 -226 -135 -90 -23 -1036 -22 -1116 1 -226 66 -371 258 -371 489 0
198 97 361 272 454 109 58 133 60 685 58 485 -2 502 -3 557 -24z m11074 16
c286 -52 473 -349 399 -634 -43 -163 -179 -305 -343 -355 -64 -20 -103 -20
-4621 -20 -3107 0 -4570 4 -4601 11 -260 60 -434 336 -379 601 29 138 147 292
270 351 123 60 -232 55 4695 56 3186 1 4538 -2 4580 -10z"/>
<path d="M13330 14628 c-50 -14 -97 -53 -120 -98 -19 -37 -20 -59 -20 -407 0
-363 1 -369 23 -408 25 -45 73 -80 127 -95 25 -7 1823 -9 5351 -8 l5314 3 42
24 c24 14 55 42 70 64 l28 40 3 371 3 372 -24 44 c-16 30 -40 55 -72 75 l-48
30 -5321 2 c-3510 1 -5333 -2 -5356 -9z"/>
<path d="M1095 3248 c-545 -61 -996 -496 -1076 -1038 -23 -158 -8 -325 70
-809 89 -549 115 -636 245 -836 177 -272 476 -472 801 -536 59 -12 2003 -14
12905 -14 10902 0 12846 2 12905 14 448 89 812 414 948 847 15 46 58 275 99
525 71 436 72 447 73 629 0 123 -5 204 -13 240 -68 274 -160 442 -344 628
-175 176 -386 287 -657 344 -74 16 -10593 24 -10651 8 -85 -23 -129 -91 -130
-200 -1 -236 -79 -517 -206 -743 -245 -432 -664 -759 -1204 -937 -245 -81
-454 -117 -735 -127 -897 -31 -1726 388 -2109 1064 -127 226 -205 507 -206
743 0 70 -22 132 -58 163 -54 49 254 46 -5337 45 -3023 0 -5274 -4 -5320 -10z
m1850 -1122 c254 -68 418 -319 375 -574 -34 -203 -190 -369 -392 -417 -48 -11
-133 -15 -359 -15 -333 0 -403 10 -507 73 -152 91 -252 268 -252 445 0 221
173 441 386 491 65 15 690 13 749 -3z m22935 3 c260 -60 434 -336 379 -601
-27 -128 -126 -267 -241 -335 -104 -63 -174 -73 -507 -73 -226 0 -311 4 -359
15 -259 61 -431 309 -394 568 29 200 161 353 362 418 48 16 96 18 385 18 192
0 349 -4 375 -10z"/>
</g>
</svg>
