<?xml version="1.0" standalone="no"?>
<!DOCTYPE svg PUBLIC "-//W3C//DTD SVG 20010904//EN"
 "http://www.w3.org/TR/2001/REC-SVG-20010904/DTD/svg10.dtd">
<svg version="1.0" xmlns="http://www.w3.org/2000/svg"
 width="942.000000pt" height="585.000000pt" viewBox="0 0 942.000000 585.000000"
 preserveAspectRatio="xMidYMid meet">

<g transform="translate(0.000000,585.000000) scale(0.100000,-0.100000)"
fill="#000000" stroke="none">
<path d="M724 5839 c-59 -17 -126 -71 -158 -129 l-31 -55 -3 -1007 -2 -1007
-194 -3 -194 -3 -43 -30 c-23 -16 -53 -50 -66 -74 l-23 -44 0 -841 c0 -944 -4
-888 74 -953 56 -45 96 -53 279 -53 l166 0 3 -723 3 -722 31 -55 c33 -60 99
-112 162 -130 25 -7 1333 -10 3998 -10 3566 0 3966 2 4013 16 64 19 131 77
163 142 l23 47 3 1208 3 1207 187 0 c209 0 232 6 272 72 20 32 20 53 20 1034
l0 1001 -23 33 c-48 72 -58 75 -267 78 l-189 3 -3 402 c-3 360 -5 406 -21 442
-22 50 -80 110 -132 138 l-40 22 -3990 2 c-2377 1 -4003 -2 -4021 -8z m8116
-774 l0 -225 -742 0 -743 0 -39 -23 c-22 -12 -49 -38 -60 -57 -21 -35 -21 -47
-24 -1020 l-2 -985 22 -45 c13 -25 38 -55 57 -67 l34 -23 748 0 749 0 0 -1194
c0 -820 -3 -1204 -11 -1223 -13 -34 -55 -80 -91 -99 -23 -12 -601 -14 -4009
-14 l-3981 0 -40 22 c-22 13 -51 41 -64 64 l-24 41 0 711 0 712 904 0 c988 0
956 -2 1019 58 16 15 39 45 50 67 l22 40 0 835 0 835 -25 50 c-16 32 -41 61
-68 80 l-44 30 -929 3 -929 2 0 825 0 825 4110 0 4110 0 0 -225z m469 -341
c16 -21 21 -41 21 -90 l0 -64 -1005 0 -1005 0 0 67 c0 55 4 71 22 90 l21 23
963 0 963 0 20 -26z m21 -1109 l0 -866 -25 -24 -24 -25 -954 0 c-950 0 -954 0
-981 21 l-26 20 0 870 0 869 1005 0 1005 0 0 -865z m-6887 -69 c45 -19 77 -57
84 -100 l6 -36 -1223 0 -1222 0 6 33 c8 43 35 78 77 99 32 17 107 18 1137 18
912 0 1108 -2 1135 -14z m87 -971 c0 -812 2 -778 -56 -824 l-27 -21 -1137 0
-1137 0 -27 21 c-58 46 -56 12 -56 824 l0 745 1220 0 1220 0 0 -745z"/>
<path d="M4490 4965 c-22 -26 -1 -54 68 -89 l67 -34 -50 -6 c-229 -28 -417
-85 -605 -182 -444 -228 -758 -644 -861 -1138 -15 -69 -22 -142 -23 -231 -1
-129 -1 -130 22 -133 38 -6 52 15 52 74 0 91 28 275 59 385 164 583 662 1029
1254 1123 116 19 199 25 195 16 -2 -5 -40 -38 -85 -74 -81 -65 -89 -77 -77
-110 14 -37 56 -16 195 95 187 151 187 143 -10 243 -155 78 -180 86 -201 61z"/>
<path d="M4585 4476 c-5 -3 -22 -7 -37 -10 -39 -9 -88 -55 -109 -101 -9 -22
-23 -77 -30 -121 l-12 -82 -65 -26 -65 -27 -41 31 c-90 67 -138 90 -194 90
-75 0 -112 -23 -224 -138 -158 -160 -166 -218 -54 -376 26 -35 46 -71 46 -79
0 -9 -11 -41 -24 -70 l-24 -54 -78 -13 c-103 -16 -147 -34 -183 -76 -42 -47
-51 -90 -51 -239 0 -145 9 -190 47 -235 36 -43 67 -57 176 -77 l95 -17 26 -64
27 -64 -44 -61 c-64 -90 -77 -120 -77 -177 0 -73 24 -111 142 -226 113 -111
148 -129 229 -122 39 4 66 17 132 62 45 31 87 56 93 56 6 0 36 -11 66 -24 55
-24 55 -25 62 -78 15 -112 28 -150 63 -189 56 -62 96 -71 275 -67 149 3 156 4
196 31 53 34 75 79 96 191 9 49 17 90 18 92 2 1 30 13 64 27 l60 24 85 -57
c155 -103 204 -95 362 58 116 114 133 137 143 200 9 55 -9 103 -71 192 l-52
75 25 60 c14 33 26 61 27 63 1 1 42 9 90 18 110 19 157 43 192 96 28 41 28 43
28 212 0 190 -4 207 -69 264 -34 30 -88 47 -190 59 l-48 6 -29 64 -29 65 59
88 c95 142 92 194 -18 318 -117 132 -176 178 -236 182 -76 5 -95 -1 -183 -60
l-89 -59 -66 27 -66 27 -11 70 c-22 137 -46 182 -113 218 -37 19 -59 22 -187
24 -80 1 -149 1 -155 -1z m215 -795 c136 -23 255 -95 330 -201 158 -227 113
-521 -107 -686 -297 -224 -723 -48 -785 324 -53 318 244 615 562 563z"/>
<path d="M6314 3222 c-7 -4 -17 -64 -23 -142 -25 -296 -109 -535 -272 -777
-89 -130 -256 -301 -382 -390 -218 -153 -496 -258 -746 -281 l-83 -8 81 75
c45 42 82 83 81 92 0 21 -20 39 -42 39 -11 0 -84 -57 -163 -127 -144 -128
-164 -155 -132 -181 22 -18 320 -152 338 -152 22 0 41 32 32 56 -3 9 -52 38
-107 64 l-101 47 80 7 c730 65 1336 613 1475 1333 27 141 38 317 20 338 -13
16 -38 19 -56 7z"/>
<path d="M1406 1000 c-57 -29 -85 -58 -112 -115 -57 -120 -2 -269 118 -321 42
-18 146 -19 3288 -22 2310 -2 3260 1 3298 9 219 45 259 344 60 443 l-52 26
-3280 0 c-3242 -1 -3281 -1 -3320 -20z m6608 -80 c110 -53 117 -207 14 -270
-32 -19 -52 -20 -560 -20 l-528 0 0 155 0 155 517 0 c495 0 518 -1 557 -20z"/>
</g>
</svg>
